HIERARCHY
ROOT Hips
{
	OFFSET 0.000000 0.000000 0.000000 
	CHANNELS 6 Xposition Yposition Zposition Zrotation Yrotation Xrotation
	JOINT LeftUpLeg
	{
		OFFSET 1.363060 -1.794630 0.839290 
		CHANNELS 3 Zrotation Yrotation Xrotation
		JOINT LeftLeg
		{
			OFFSET 2.448110 -6.726130 0.000000 
			CHANNELS 3 Zrotation Yrotation Xrotation
			JOINT LeftFoot
			{
				OFFSET 2.562200 -7.039590 0.000000 
				CHANNELS 3 Zrotation Yrotation Xrotation
				JOINT LeftToeBase
				{
					OFFSET 0.157640 -0.433110 2.322550 
					CHANNELS 3 Zrotation Yrotation Xrotation
					End Site
					{
						OFFSET 0.000000 0.000000 0.000000 
					}
				}
			}
		}
	}
	JOINT RightUpLeg
	{
		OFFSET -1.305520 -1.794630 0.839290 
		CHANNELS 3 Zrotation Yrotation Xrotation
		JOINT RightLeg
		{
			OFFSET -2.542530 -6.985550 0.000000 
			CHANNELS 3 Zrotation Yrotation Xrotation
			JOINT RightFoot
			{
				OFFSET -2.568260 -7.056230 0.000000 
				CHANNELS 3 Zrotation Yrotation Xrotation
				JOINT RightToeBase
				{
					OFFSET -0.164730 -0.452590 2.363150 
					CHANNELS 3 Zrotation Yrotation Xrotation
					End Site
					{
						OFFSET 0.000000 0.000000 0.000000 
					}
				}
			}
		}
	}
	JOINT Spine
	{
		OFFSET 0.028270 2.035590 -0.193380 
		CHANNELS 3 Zrotation Yrotation Xrotation
		JOINT Spine1
		{
			OFFSET 0.056720 2.048850 -0.042750 
			CHANNELS 3 Zrotation Yrotation Xrotation
			JOINT Neck1
			{
				OFFSET -0.054170 1.746240 0.172020 
				CHANNELS 3 Zrotation Yrotation Xrotation
				JOINT Head
				{
					OFFSET 0.104070 1.761360 -0.123970 
					CHANNELS 3 Zrotation Yrotation Xrotation
					End Site
					{
						OFFSET 0.000000 0.000000 0.000000 
					}
				}
			}
			JOINT LeftArm
			{
				OFFSET 3.362410 1.200890 -0.311210 
				CHANNELS 3 Zrotation Yrotation Xrotation
				JOINT LeftForeArm
				{
					OFFSET 4.983000 -0.000000 -0.000000 
					CHANNELS 3 Zrotation Yrotation Xrotation
					JOINT LeftHand
					{
						OFFSET 3.483560 -0.000000 -0.000000 
						CHANNELS 3 Zrotation Yrotation Xrotation
						JOINT LeftHandIndex1
						{
							OFFSET 0.715260 -0.000000 -0.000000 
							CHANNELS 3 Zrotation Yrotation Xrotation
							End Site
							{
								OFFSET 0.000000 0.000000 0.000000 
							}
						}
					}
				}
			}
			JOINT RightArm
			{
				OFFSET -3.136600 1.374050 -0.404650 
				CHANNELS 3 Zrotation Yrotation Xrotation
				JOINT RightForeArm
				{
					OFFSET -5.241900 -0.000000 -0.000000 
					CHANNELS 3 Zrotation Yrotation Xrotation
					JOINT RightHand
					{
						OFFSET -3.444170 -0.000000 -0.000000 
						CHANNELS 3 Zrotation Yrotation Xrotation
						JOINT RightHandIndex1
						{
							OFFSET -0.622530 -0.000000 -0.000000 
							CHANNELS 3 Zrotation Yrotation Xrotation
							End Site
							{
								OFFSET 0.000000 0.000000 0.000000 
							}
						}
					}
				}
			}
		}
	}
}
MOTION
Frames: 7
Frame Time: 0.041667
7.231777 17.712007 0.863562 83.943455 -87.178130 -85.930010 -7.093327 2.482470 -11.921630 2.914293 14.208598 36.396788 -6.614370 17.743736 -0.403682 2.511700 -9.859100 -28.521500 2.376258 3.385946 -9.746917 -3.615324 -14.747499 39.685965 4.995486 -15.657804 -6.183691 -0.135300 2.370800 -6.531400 -1.041722 1.560878 -0.546419 -3.638296 0.669061 8.955809 1.940135 -1.995818 13.653345 0.036400 -0.765200 3.914200 -65.412103 -3.309823 37.915015 28.969109 -38.827287 -13.636427 0.464773 1.239801 8.079840 -7.125000 0.000000 0.000000 69.611797 -0.324197 33.927333 -30.442885 40.920851 -14.457785 2.391603 1.459478 13.549927 7.125000 0.000000 0.000000 
7.227450 17.711674 0.863895 83.631257 -87.161442 -85.557953 -7.110495 2.448858 -11.938454 2.902306 14.203046 36.382736 -6.607081 17.712217 -0.543067 2.597000 -10.012200 -29.016200 2.356422 3.410439 -9.769364 -3.614795 -14.747607 39.689741 5.029821 -15.736246 -6.291736 -0.143200 2.438800 -6.720100 -1.042839 1.556395 -0.555939 -3.619846 0.668579 8.982990 2.311779 -1.991779 13.446661 0.239700 -0.761900 3.816200 -65.444266 -3.317316 37.914480 28.773708 -38.693928 -13.518419 0.459883 1.251016 8.312426 -7.125000 0.000000 0.000000 69.691603 -0.430144 33.976451 -30.569840 40.938506 -14.396664 2.470174 1.094553 13.616836 7.125000 0.000000 0.000000 
7.227339 17.711230 0.862896 83.737638 -87.104899 -85.647753 -7.156227 2.401657 -11.935293 2.897332 14.202211 36.372511 -6.600453 17.703556 -0.516204 2.525300 -9.883800 -28.601200 2.298949 3.451688 -9.775245 -3.614728 -14.744152 39.694931 4.974864 -15.603835 -6.319658 -0.124700 2.276000 -6.269100 -1.039725 1.560686 -0.567667 -3.541519 0.665884 8.949176 2.563183 -2.023738 13.357933 0.383800 -0.778400 3.784800 -65.476508 -3.235855 37.957394 28.768970 -38.692362 -13.503213 0.458972 1.247066 8.363255 -7.125000 0.000000 0.000000 69.657688 -0.512434 34.061229 -30.684114 40.948831 -14.341785 2.476863 0.732574 13.624355 7.125000 0.000000 0.000000 
7.228782 17.711563 0.862453 84.536308 -87.183129 -86.435086 -7.065026 2.364397 -11.914970 2.895156 14.194159 36.366237 -6.536658 17.582658 -0.499314 2.441600 -9.731000 -28.110000 2.392299 3.551092 -9.769721 -3.608757 -14.751671 39.696685 4.988836 -15.639820 -6.320541 -0.123600 2.266700 -6.243300 -1.014986 1.551193 -0.558158 -3.500599 0.659815 9.000971 2.466217 -2.115991 13.485304 0.328700 -0.822700 3.895300 -65.443868 -3.280010 37.987693 28.765664 -38.678910 -13.486065 0.469529 1.239806 8.242893 -7.125000 0.000000 0.000000 69.593162 -0.428151 34.194549 -30.711659 40.894767 -14.236562 2.417070 0.327541 13.445076 7.125000 0.000000 0.000000 
7.228782 17.711785 0.862009 85.038814 -87.185615 -86.921703 -7.059259 2.326276 -11.904988 2.890053 14.189774 36.354993 -6.518454 17.546883 -0.508135 2.404600 -9.662300 -27.890000 2.397482 3.585079 -9.783392 -3.609767 -14.754353 39.701235 5.003060 -15.673379 -6.322786 -0.128800 2.313800 -6.373800 -1.011604 1.557558 -0.558783 -3.480242 0.660387 9.020226 2.457767 -2.197084 13.532675 0.317800 -0.860700 3.960300 -65.407897 -3.287471 38.032786 28.740274 -38.657847 -13.463316 0.478696 1.235774 8.219132 -7.125000 0.000000 0.000000 69.601713 -0.417791 34.233785 -30.741029 40.880541 -14.196169 2.337048 0.043065 13.314085 7.125000 0.000000 0.000000 
7.229003 17.712340 0.861676 85.587419 -87.177536 -87.457685 -7.068053 2.295125 -11.898145 2.885645 14.186655 36.343672 -6.522075 17.551809 -0.521687 2.380700 -9.617700 -27.747500 2.389138 3.602051 -9.801652 -3.612388 -14.756128 39.705466 5.017164 -15.706367 -6.308207 -0.136500 2.380900 -6.559500 -1.013960 1.569635 -0.558375 -3.472125 0.663505 9.038511 2.426273 -2.279236 13.588017 0.291200 -0.898700 4.032700 -65.350103 -3.299630 38.083146 28.727819 -38.646522 -13.451066 0.489381 1.231170 8.178370 -7.125000 0.000000 0.000000 69.627575 -0.398150 34.252052 -30.743621 40.863501 -14.166460 2.262946 -0.153986 13.169864 7.125000 0.000000 0.000000 
7.228892 17.713116 0.861232 86.058892 -87.164719 -87.915408 -7.084352 2.273675 -11.895342 2.880405 14.182514 36.324635 -6.552016 17.605157 -0.548425 2.385300 -9.626300 -27.774900 2.373531 3.610127 -9.821542 -3.615587 -14.757705 39.710765 5.027028 -15.729332 -6.293776 -0.143600 2.441800 -6.728400 -1.021400 1.585783 -0.558172 -3.474411 0.669848 9.050532 2.464205 -2.339912 13.588109 0.302700 -0.925900 4.068500 -65.278704 -3.308870 38.133601 28.713400 -38.635486 -13.440808 0.498639 1.227642 8.148816 -7.125000 0.000000 0.000000 69.670474 -0.384873 34.254703 -30.731606 40.846057 -14.142193 2.210696 -0.270569 13.064726 7.125000 0.000000 0.000000 
